<svg xmlns="http://www.w3.org/2000/svg" width="128" height="128" viewBox="0 0 128 128">
 <rect x="4" y="4" width="120" height="120" rx="26" fill="#FFF8FB" stroke="#D8BDCE" stroke-width="2"/>
 <path d="M90 22v84M24 98h53" stroke="#D8BDCE"/>
 <path d="M65 31C38 21 28 40 39 55c6 8 20 10 26 17-2-15 15-23 0-41Z" fill="#DBB4CA"/>
 <path d="M69 62c18-13 29-3 20 10-6 8-16 6-20 12 3-9-7-14 0-22Z" fill="#B587A3"/>
 <path d="M42 88c4-17 14-30 22-40" fill="none" stroke="#804D6C" stroke-width="2" stroke-linecap="round"/>
 <circle cx="101" cy="35" r="3" fill="#804D6C"/><circle cx="101" cy="48" r="3" fill="#D8BDCE"/>
</svg>
